<svg width="28" height="28" viewBox="0 0 90 80" fill="none" xmlns="http://www.w3.org/2000/svg">
        <g clip-path="url(#clip0)">
          <path d="M47.9347 71.3043V57.1014C51.1956 57.1014 54.1303 57.1014 57.3912 57.1014C58.6956 57.1014 60.326 56.5217 60.9782 55.942C63.913 51.8841 66.1956 47.8261 69.1303 43.1884H47.9347V28.6956H69.4564C66.1956 23.4783 63.2608 19.1304 60.326 14.7826C59.9999 14.2029 58.3695 14.2029 57.3912 13.913C54.4564 13.913 51.1956 13.913 47.9347 13.913V0C54.7825 0 61.3043 0 67.826 0C68.8043 0 69.7825 0.57971 70.1086 1.15942C76.3043 10.7246 82.826 20.2899 89.0216 30.1449L79.239 35.3623L89.0216 40.8696C86.0869 45.5072 82.826 50.1449 79.8912 54.7826C76.6303 59.7101 73.6956 64.6377 70.4347 69.2754C69.7825 70.1449 68.8043 71.0145 67.826 71.0145C61.3043 71.5942 54.7825 71.3043 47.9347 71.3043Z" fill="white"></path>
          <path d="M45.3262 57.3913V71.5942C38.8045 71.5942 32.2827 71.5942 26.0871 71.5942L0.978394 80.2899L12.7175 52.1739V52.1739C8.15231 43.7681 3.58709 35.6522 3.58709 35.6522C3.58709 35.6522 16.6306 11.0145 22.8262 1.44928C23.4784 0.57971 24.4567 0.289855 25.4349 0C31.9567 0 38.4784 0 45.3262 0V14.2029C42.0653 14.2029 38.8045 14.2029 35.8697 14.2029C34.8914 14.2029 33.261 14.4928 32.9349 15.0725C30.0001 19.4203 27.0653 23.7681 23.8045 28.9855H45.3262V43.4783H24.1306C27.0653 48.1159 29.674 52.1739 32.2827 56.2319C32.9349 57.1014 34.5653 57.3913 35.8697 57.3913C39.1306 57.3913 42.0653 57.3913 45.3262 57.3913Z" fill="white"></path>
        </g>
        <defs>
          <clipPath id="clip0">
            <rect width="90" height="80" fill="white"></rect>
          </clipPath>
        </defs>
      </svg>