<svg fill="none" height="24" viewBox="0 0 24 24" width="24" xmlns="http://www.w3.org/2000/svg" aria-label="whatsapp-ft" class="" name="whatsapp-ft"><circle cx="12" cy="12" fill="#fff" r="12"></circle><path d="M14.51 6.204c.187.056.372.112.558.186.186.074.372.149.539.242.167.074.353.167.501.278.186.112.335.223.502.335.149.111.297.241.446.39.148.13.278.26.408.408.13.149.242.316.372.465.111.167.223.334.316.501.093.167.185.335.26.52a3.5 3.5 0 0 1 .223.558l.167.557c.037.204.074.39.093.576.037.204.056.409.056.594 0 .205 0 .39-.02.576 0 .204-.036.39-.055.595a5.1 5.1 0 0 1-.13.575c-.056.186-.111.372-.186.558-.055.185-.148.371-.223.538-.092.167-.185.353-.297.52a3.755 3.755 0 0 1-.334.483 7.9 7.9 0 0 1-.372.446c-.13.149-.278.279-.427.409a4.5 4.5 0 0 1-.464.371c-.168.112-.335.223-.483.316l-.093.056-.446.223c-.186.074-.371.148-.539.204-.185.075-.371.112-.575.167a25.97 25.97 0 0 1-.576.112h-.057a4.9 4.9 0 0 1-.538.037h-.576c-.185-.019-.39-.037-.594-.074-.186-.037-.39-.075-.576-.13a1.532 1.532 0 0 1-.353-.112c-.111-.037-.241-.074-.353-.13a2.018 2.018 0 0 1-.353-.148c-.111-.056-.223-.112-.334-.186a1.827 1.827 0 0 1-.279-.167c-.093-.056-.167-.093-.241-.149l-.037-.037c-.075-.056-.168-.112-.242-.186a1.02 1.02 0 0 1-.167-.13l-2.898.13H5.91l-.297.019h-.204L5 16.718l.204-.353.093-.185.13-.223.019-.019.111-.204 1.505-2.6a.958.958 0 0 1-.037-.205l-.019-.149-.018-.093v-.055c-.019-.112-.019-.223-.038-.316l.019-.019c-.019-.093-.019-.204-.019-.316 0-.13 0-.26.019-.39 0-.111.019-.241.037-.371l.056-.39c.037-.13.056-.26.093-.372.056-.186.111-.371.186-.557.074-.204.148-.372.222-.539.093-.186.186-.353.298-.52.093-.167.204-.334.334-.483.111-.167.242-.316.372-.446.148-.148.278-.278.427-.408.148-.13.297-.26.464-.372.167-.13.335-.223.502-.316.167-.111.334-.185.52-.278a4.62 4.62 0 0 1 .539-.205 2.94 2.94 0 0 1 .575-.167 3.08 3.08 0 0 1 .576-.111c.186-.019.39-.037.595-.037V6a6.495 6.495 0 0 1 1.17.093c.186.018.39.074.576.111Zm-5.442 9.084h.334l.093-.019.075.075.037.037.056.037c.074.074.148.149.222.204.075.075.15.13.223.186.075.056.167.111.26.167.075.074.168.112.242.167.093.038.186.093.279.13a.87.87 0 0 0 .185.093h.019l.056.038c.093.037.204.074.278.092.093.037.186.056.298.093.148.037.315.075.464.093.149.037.297.056.464.056.149.018.297.018.465.018.148-.018.297-.018.445-.037.168-.018.316-.055.465-.093.149-.037.297-.074.446-.13.148-.037.297-.093.427-.167.149-.056.279-.13.427-.204.13-.093.26-.167.39-.26s.242-.186.372-.297c.111-.093.223-.205.334-.316.093-.112.204-.223.297-.353.093-.13.186-.26.26-.39.075-.13.149-.26.223-.409.075-.13.13-.279.186-.427.056-.13.093-.279.149-.446a3.8 3.8 0 0 0 .093-.446l.055-.464a1.94 1.94 0 0 0 0-.465c0-.148 0-.278-.018-.427l-.019-.037a4.618 4.618 0 0 0-.074-.464 4.1 4.1 0 0 0-.13-.446c-.056-.149-.112-.279-.167-.428a2.217 2.217 0 0 0-.223-.408 3.746 3.746 0 0 0-.539-.762 4.916 4.916 0 0 0-.632-.613l-.037-.018-.39-.279a8.108 8.108 0 0 0-.409-.223c-.13-.056-.278-.13-.427-.186-.13-.037-.278-.093-.445-.13-.15-.055-.316-.074-.446-.111a32.158 32.158 0 0 1-.465-.056h-.464c-.167 0-.316.019-.464.037-.168.019-.316.056-.465.075-.148.037-.297.092-.446.13A2.963 2.963 0 0 0 11 7.69c-.149.056-.279.13-.427.205-.13.074-.26.167-.39.26s-.242.186-.372.278a5.22 5.22 0 0 0-.316.335c-.111.111-.223.223-.315.353l-.038.055c-.074.093-.148.205-.223.316-.074.13-.148.279-.222.409-.075.149-.13.297-.186.427-.056.149-.093.297-.149.446a8.921 8.921 0 0 1-.056.297c-.018.093-.037.186-.055.297-.019.112-.019.205-.037.298v.297c-.019.093 0 .204 0 .297s.018.204.018.297c.019.093.037.186.056.297l.056.28.018.055v.056l.019.093-.037.074-.019.037-.018.037-.02.019-.166.315-.149.242-.204.371-.557.948 1.746-.075.093-.018h.018Z" fill="#000"></path><path d="M11.074 8.36c-1.003.426-1.319 1.337-1.133 2.358.112.613.335 1.226.725 1.97.39.742.891 1.448 1.43 2.006 1.449 1.486 3.79 1.226 3.01-.075-.39-.613-.614-1.114-.614-1.114s-.167-.353-.501-.149c-.353.223-.688.464-.855.427-.26-.037-2.303-2.656-1.523-3.065.353-.167.966-.371.706-.798l-.855-1.45s-.13-.24-.39-.11Z" fill="#000"></path></svg>