<svg fill="none" height="16" viewBox="0 0 16 16" width="16" xmlns="http://www.w3.org/2000/svg" aria-label="infoProd" class="" name="infoProd"><path d="M8.43994 15.3962C4.29769 15.3962 0.939941 12.0385 0.939941 7.89624C0.939941 3.75399 4.29769 0.39624 8.43994 0.39624C12.5822 0.39624 15.9399 3.75399 15.9399 7.89624C15.9399 12.0385 12.5822 15.3962 8.43994 15.3962ZM8.43994 13.8962C10.0312 13.8962 11.5574 13.2641 12.6826 12.1389C13.8078 11.0137 14.4399 9.48754 14.4399 7.89624C14.4399 6.30494 13.8078 4.77882 12.6826 3.6536C11.5574 2.52838 10.0312 1.89624 8.43994 1.89624C6.84864 1.89624 5.32252 2.52838 4.1973 3.6536C3.07208 4.77882 2.43994 6.30494 2.43994 7.89624C2.43994 9.48754 3.07208 11.0137 4.1973 12.1389C5.32252 13.2641 6.84864 13.8962 8.43994 13.8962ZM8.43994 4.14624C8.63885 4.14624 8.82962 4.22526 8.97027 4.36591C9.11092 4.50656 9.18994 4.69733 9.18994 4.89624V8.64624C9.18994 8.84515 9.11092 9.03592 8.97027 9.17657C8.82962 9.31722 8.63885 9.39624 8.43994 9.39624C8.24103 9.39624 8.05026 9.31722 7.90961 9.17657C7.76896 9.03592 7.68994 8.84515 7.68994 8.64624V4.89624C7.68994 4.69733 7.76896 4.50656 7.90961 4.36591C8.05026 4.22526 8.24103 4.14624 8.43994 4.14624ZM8.43994 11.6462C8.24103 11.6462 8.05026 11.5672 7.90961 11.4266C7.76896 11.2859 7.68994 11.0952 7.68994 10.8962C7.68994 10.6973 7.76896 10.5066 7.90961 10.3659C8.05026 10.2253 8.24103 10.1462 8.43994 10.1462C8.63885 10.1462 8.82962 10.2253 8.97027 10.3659C9.11092 10.5066 9.18994 10.6973 9.18994 10.8962C9.18994 11.0952 9.11092 11.2859 8.97027 11.4266C8.82962 11.5672 8.63885 11.6462 8.43994 11.6462Z" fill="#ED017F"></path></svg>